<?xml version="1.0" encoding="UTF-8"?><svg id="a" xmlns="http://www.w3.org/2000/svg" viewBox="0 0 1512.92 401.66"><defs><style>.b{fill:#343433;}.c{fill:#ff856e;}</style></defs><path class="c" d="M889.22,352.89c-2.79-1.1-3.05,1.15-3.92,2.56-6.55,10.62-15.87,17.28-28.08,19.94-7.22,1.57-14.53,1.77-21.87,1.78-19.78,.03-39.04-3.96-58.33-7.66-9.62-1.84-19.22-3.81-28.83-5.72,14.28-6.49,28.27-12.63,43.63-14.71,30.29-4.1,52.5-19.98,66.44-47.01,14.25-27.62,15.78-57.13,11.17-87.2-8.14-53.02-53.48-85.07-105.96-74.6-33.42,6.66-54.39,28.06-65.89,59.23-8.86,24.03-9.12,48.96-5.49,73.97,2.91,20.09,10.72,38.09,25.09,52.79,13.67,13.98,30.67,21.31,49.88,24.93-8.21,3.53-16.39,7.13-24.64,10.54-3.26,1.35-6.59,1.62-10.24,.8-8.33-1.89-16.86-2.16-25.33-1.16-3.19,.37-7.09,1.1-7.15,5.53-.06,4.46,3.77,4.93,7,5.69,1.27,.3,2.64,.25,3.97,.32,7.58,.4,14.91-1.15,22.14-3.18,2.67-.75,5.12-.83,7.81-.11,14.71,3.92,28.48,10.26,42.41,16.2,15.94,6.79,31.84,13.9,49.5,14.68,30.19,1.33,51.69-11.51,58.22-42.7,.4-1.93,1.3-3.8-1.53-4.91Zm-140.68-20.1c-13.25-11.93-20.82-27.29-25.11-44.06-9.11-35.58-8.16-70.89,5.61-105.32,4.12-10.29,10.25-19.35,18.42-27.02,17.72-16.67,45.47-16.94,63.54-.55,16.48,14.95,23.68,34.58,28.22,55.55,2.36,10.95,2.83,22.1,3.02,33.05-.49,25.8-3.87,50.75-17.59,73.06-8.25,13.42-18.91,24.18-35.4,26.89-15.34,2.52-29-1.05-40.71-11.6Z"/><path class="c" d="M664.57,31.64c11.82,6.69,22.76,12.88,33.7,19.07,11.44,6.48,22.94,12.87,34.29,19.51,2.87,1.68,4.08,1.14,5.71-1.6,12.6-21.17,25.35-42.25,38.08-63.35,.83-1.38,1.35-3.03,3.36-4.22,4.37,7.24,8.73,14.46,13.09,21.67,9.2,15.25,18.49,30.45,27.52,45.8,1.81,3.08,3.12,3.2,6.07,1.44,21.75-12.94,43.61-25.68,65.44-38.47,.12-.07,.33,0,.58,0,.96,1.33-.12,2.46-.5,3.58-9.03,26.46-18.16,52.88-27.08,79.37-1.21,3.59-2.2,4.2-5.8,2.39-53.52-26.83-106.85-26.47-159.82,1.65-2.18,1.16-3.67,2.73-4.99-1.1-9.52-27.69-19.23-55.32-28.87-82.97-.2-.57-.32-1.16-.76-2.78Z"/><path class="b" d="M71.47,144.09c22.33,0,44.65,.09,66.98-.09,3.29-.03,4.28,.45,3.91,3.97-1.84,17.6-1.54,35.26-.88,52.92,.07,1.99,.43,3.71-2.5,3.49-2.12-.16-4.23,.44-4.56-2.97-.76-7.95-2.03-15.83-3.74-23.65-3.32-15.24-12.13-24.62-28-26.12-13.61-1.29-27.25-1.46-40.88,.18-5.64,.68-8.44,3.91-9.39,9.36-.84,4.78-1.29,9.57-1.29,14.41-.01,21.83,.09,43.65-.1,65.48-.04,3.97,1.07,5.19,5.01,4.93,7.63-.5,15.32,.5,22.94-.8,5.62-.96,9.69-3.69,12.42-8.91,3.88-7.4,5.83-15.26,6.23-23.47,.2-4.2,2.49-4.32,5.61-4.14,4.13,.23,2.04,3.18,1.96,4.79-1.25,24-.56,47.96,1.13,71.91,.26,3.69-.45,5.14-4.4,4.79-2.4-.21-2.61-1.5-2.82-3.21-.52-4.13-.99-8.27-1.61-12.39-2.32-15.34-10.61-22.52-26.04-22.6-5.83-.03-11.67,.1-17.5-.06-2.61-.07-3.81,.42-3.79,3.46,.17,21.82,.12,43.65,.23,65.47,.01,2.64,.46,5.31,.94,7.92,1.15,6.25,4.66,10.13,11.23,10.88,4.63,.53,9.23,1.38,13.87,1.77,2.97,.25,3.35,1.77,3.25,4.27-.13,3.25-2.35,2.12-3.94,2.06-23.98-1-47.97-1.11-71.95,0-1.74,.08-3.68,.86-3.78-2.24-.09-2.72,.61-4.09,3.54-3.72,.81,.1,1.66-.08,2.48-.19,11.71-1.46,14.28-3.85,15.81-15.41,.54-4.11,.61-8.31,.61-12.46,.04-45.48,.02-90.97,.03-136.45,0-5.34-.1-10.66-1.11-15.93-1.23-6.43-3.77-9.09-10.31-10.48-2.44-.52-4.89-1.22-7.36-1.31-3.11-.12-3.87-1.47-3.67-4.36,.23-3.33,2.5-2.01,3.99-1.91,22.46,1.55,44.97,.92,67.46,.8Z"/><path class="b" d="M1403.21,223.29c5.73-14.5,16.54-22.68,31.03-26.52,9.84-2.61,19.79-2.62,29.67-.34,13.41,3.09,21.07,11.96,24.32,25.01,1.99,7.99,2.21,16.15,2.22,24.32,0,22.82,0,45.63,0,68.45,0,1.67,.01,3.33,0,5-.03,13.09,3.63,20.19,19.32,20.78,2.35,.09,3.15,.74,3.14,3.14,0,2.45-.81,3.07-3.2,2.96-19.98-.86-39.96-1.08-59.94-.05-2,.1-3.6,.17-3.51-2.68,.07-2.16,.42-3.1,2.94-3.41,12.18-1.53,15.81-5.1,15.92-17.28,.26-29.97,.08-59.95,.03-89.93,0-2.16-.32-4.32-.58-6.46-2.18-17.71-13.69-25.5-31.05-20.78-11.85,3.22-20.05,10.84-24.99,21.97-4.23,9.55-6.32,19.55-6.26,30.05,.12,20.82,.03,41.64,.04,62.45,0,1.5,.04,3,.11,4.49,.56,11.47,3.73,15,15.18,16.33,2.51,.29,3.92,.57,3.8,3.62-.13,3.46-2.44,2.57-4.2,2.48-19.48-1.01-38.96-.87-58.44,0-1.72,.08-4.11,1.06-4.25-2.42-.13-2.99,1.16-3.42,3.75-3.67,6.63-.64,13.48-1.12,16.8-8.52,1.54-3.43,2.05-7.03,2.06-10.69,.05-31.14,.04-62.29,0-93.43,0-1.82-.29-3.65-.51-5.46-1.43-11.69-6.42-16.82-18.1-18.1-2.77-.31-4.31-.73-3.98-4.01,.38-3.78,2.79-1.85,4.41-1.77,13.68,.66,27.34,.71,40.66-3.02,3.1-.87,3.7-.22,3.66,2.75-.14,8.25-.05,16.5-.05,24.74Z"/><path class="b" d="M999.35,319.41c-7.38,16.93-20.38,26.6-37.73,30.84-8.4,2.05-16.9,1.63-25.16-1.01-11.03-3.52-18.62-10.6-22.11-21.86-2.55-8.23-3.14-16.66-3.15-25.18,0-22.99,.02-45.97-.04-68.96,0-3.49-.1-7.01-.6-10.46-1.62-11.23-6.65-16.13-17.84-17.33-2.64-.28-4.44-.42-4.11-3.86,.4-4.17,3.09-1.95,4.77-1.85,13.2,.74,26.36,.65,39.18-2.91,4.07-1.13,4.68-.27,4.67,3.62-.13,36.15-.08,72.29-.07,108.44,0,3.5,0,7,.17,10.49,.91,18.52,12.9,26.73,30.71,20.99,14.65-4.72,21.67-16.33,26.4-29.82,2.04-5.83,3.03-11.94,3.04-18.14,.03-21.65,.02-43.31,.02-64.96,0-1.16-.05-2.33-.15-3.49-1.04-12.27-6.39-17.97-18.59-19.35-2.66-.3-3.89-.9-3.61-3.78,.18-1.87,.58-2.51,2.67-2.33,14.51,1.26,28.95,1.12,43.1-2.94,2.16-.62,2.7,.13,2.61,2.06-.05,1.16,0,2.33,0,3.5,0,36.65,0,73.29,0,109.94,0,6.76,1.76,13.15,4.28,19.35,2.94,7.24,8.89,10.02,16.18,10.45,2.52,.15,3.97,.5,3.81,3.57-.17,3.51-2.41,2.43-4.22,2.28-13.87-1.13-27.63-.75-41.11,3.03-3.11,.87-3.19-.47-3.17-2.84,.08-9.16,.03-18.32,.03-27.48Z"/><path class="b" d="M388.67,252.85c-4.05-23.89-13.93-43.81-37.9-53.48-35.01-14.12-79.34-1.59-89.92,47.48-3.32,15.42-3.13,31.08-.9,46.69,1.07,7.46,3.08,14.62,6.25,21.49,10.35,22.4,27.93,33.78,52.43,35.39,31.51,2.08,54.53-11.66,65.54-39.86,4.74-12.13,5.76-24.9,5.69-37.79-.01-6.66-.08-13.33-1.19-19.92Zm-31.19,60.52c-2.15,7.42-5.2,14.38-10.41,20.25-14.12,15.89-36.94,14.28-48.58-3.45-5.4-8.23-8.3-17.41-9.86-27.01-3.31-20.38-3.34-40.8,.04-61.18,1.71-10.27,5.15-19.85,11.05-28.64,11.96-17.8,38.44-15.45,48.76-.37,5.36,7.85,8.9,16.31,10.8,25.55,2.32,11.32,2.84,22.79,2.95,34.29-.17,13.69-.89,27.31-4.75,40.56Z"/><path class="b" d="M670.68,332.72c-1.72-2.78-2.81-.88-4.24,.07-1.53,1.01-3.09,2.02-4.75,2.74-6.54,2.83-11.74,.05-12.76-6.95-.45-3.11-.49-6.3-.5-9.46-.04-24.82-.02-49.64-.02-74.47,0-8.67-.44-17.29-2.55-25.78-2.85-11.5-9.85-19.28-21.04-22.64-19.66-5.91-38.93-3.55-57.41,4.75-6.67,3-12.66,7.5-16.53,14.05-6.17,10.41-1.31,25.52,8.88,27.9,7.87,1.84,16.68-2.21,19.27-8.87,3.26-8.39-.09-17.91-7.66-22.11-1.2-.66-3.05-.45-3.62-2.49,9.57-9.51,21.66-10.25,33.93-9.01,13.38,1.36,19.89,9.28,19.96,22.87,.03,4.83-.62,9.74,.03,14.48,1.57,11.41-4.28,17.85-13.74,22.22-2.56,1.18-5.14,2.38-7.81,3.28-12.35,4.14-23.93,9.98-35.43,16-5.81,3.04-10.84,7.16-15.26,11.97-14.2,15.42-9.85,41.01,8.53,50.78,8.67,4.6,17.94,4.98,27.25,3.42,15.15-2.53,27.39-9.87,35.98-24.47,.62,3.87,.88,6.53,1.47,9.11,2.22,9.67,7.77,14.59,17.53,15.81,11.08,1.4,21.09-.78,29.91-8.08,2.37-1.96,1.88-3.01,.58-5.12Zm-49.15-19.59c0,.81-.07,1.68-.35,2.44-4.61,12.3-20.52,22.08-34.04,20.95-10.81-.9-17.44-6.85-19.43-17.41-2.99-15.95,3.73-30.97,17.94-38.91,8.83-4.94,18.01-9.27,27.05-13.82,2.97-1.5,5.99-2.87,8.85-5.48,0,17.41,0,34.82-.02,52.23Z"/><path class="b" d="M1185.29,310.34c-2.82-1.25-3.89-.69-5.24,1.97-4.24,8.32-10.2,15.19-18.47,19.79-21.27,11.84-44.51,4.36-57.28-18.22-9.5-16.79-9.63-34.97-8.53-53.41,.17-2.77,1.5-3.45,4.16-3.43,13.66,.14,27.32,.07,40.98,.07s27.32-.13,40.97,.08c3.62,.06,4.7-1.09,4.27-4.52-.7-5.61-.83-11.31-1.82-16.87-2.83-15.89-10.31-28.76-25.22-36.27-23.88-12.03-56.1-5.31-73.15,15.16-5.61,6.72-9.8,14.26-12.54,22.56-5.8,17.54-7.21,35.53-4.67,53.75,2.05,14.75,7.02,28.5,17.36,39.62,29.21,31.44,79.42,23.7,99.81-15.26,.9-1.73,2.94-3.45-.63-5.02Zm-90.32-60.89c1.71-10.19,3.27-20.4,8.22-29.67,4.86-9.12,11.45-16.41,21.91-19.03,8.77-2.2,16.35,.37,21.93,7.29,9.97,12.34,11.58,26.87,10.04,42.08-.26,2.48-1.62,2.74-3.74,2.72-9.33-.1-18.66-.05-27.99-.05s-18.32-.06-27.49,.05c-2.61,.03-3.37-.46-2.88-3.39Z"/><path class="b" d="M1331.65,311.09c-1.42-.72-2.96-2.3-4.49-1.45-1.12,.62-1.63,2.39-2.36,3.68-8.61,15.27-21.3,23.96-39.17,24.07-16.97,.1-27.83-9.64-35.84-23.22-10.06-17.06-10.16-35.83-8.56-54.8,.25-3.03,2.36-2.23,4-2.24,13.66-.04,27.32-.02,40.97-.02s26.66-.25,39.97,.13c4.73,.13,5.59-1.45,5.21-5.64-.55-5.97-.93-11.95-2.18-17.82-3.7-17.28-12.7-30.94-30-36.26-31.14-9.59-61.23-1.54-77.12,31.5-9,18.73-10.46,38.77-8.44,59.07,1.62,16.22,6.91,31.27,18.42,43.32,29.55,30.93,81.77,21.96,99.56-16.99,.5-1.09,1.96-2.36,.03-3.33Zm-91.49-60.94c1.73-11.9,3.74-23.7,10.39-34.06,4.81-7.5,11.06-13.32,20.02-15.42,8.58-2.01,16.01,.48,21.53,7.15,10.28,12.4,11.51,27.19,10.21,42.49-.23,2.68-2.05,2.51-3.95,2.5-9.32-.03-18.64-.02-27.96,0-8.99,0-17.97,0-26.96-.01-1.76,0-3.75,.59-3.28-2.64Z"/><path class="b" d="M221.43,231.6c0,27.81,0,55.62-.01,83.42,0,2.32-.01,4.61-.46,6.94-1.78,9.2,2.75,15.59,11.99,17.19,2.13,.37,4.29,.89,6.42,.83,2.78-.08,2.78,1.46,2.83,3.47,.06,2.33-1.03,2.72-3.07,2.62-21.14-.96-42.28-.94-63.42,0-2.18,.1-3.03-.59-2.92-2.79,.09-1.75-.05-3.29,2.49-3.3,2.14,0,4.3-.43,6.42-.79,8.14-1.39,11.97-5.16,13.18-13.27,.44-2.95,.54-5.97,.54-8.95,.03-46.46,.02-92.92,.03-139.37,0-4.51-.14-9-1.21-13.4-2.11-8.69-7.53-13.26-16.51-14.12-2.24-.21-5.24,.87-4.99-3.44,.29-4.86,3.7-2.35,5.49-2.29,13.52,.47,26.99,.58,40.14-3.21,4.1-1.18,3.02,1.64,3.02,3.51,.04,28.97,.02,57.95,.02,86.92Z"/><path class="b" d="M459.92,227.01c5.34-11.28,12.33-20.96,23.17-27.4,10.36-6.15,21.25-6.34,32.11-1.75,10.28,4.34,14.81,15.94,10.8,26.31-3.55,9.19-13.17,13.17-21.58,8.93-7.98-4.02-10.59-14.26-5.78-22.4,1.7-2.89,4.41-4.86,6.68-7.32-3.16-3.39-6.96-2.58-10.48-2.06-6.09,.9-11.31,3.75-15.69,8.12-12.99,12.96-19.81,28.6-19.96,46.96-.15,18.65-.04,37.31-.03,55.96,0,18.73,6.84,25.81,25.67,26.81,1.81,.1,4.62-1.25,4.67,2.58,.03,2.43-.43,3.58-3.25,3.5-23.98-.7-47.96-1.06-71.94-.04-2.33,.1-2.85-.84-2.8-2.89,.05-1.83,.11-3.25,2.58-3.23,1.98,.01,3.97-.33,5.93-.69,8.93-1.62,13.64-6.38,13.71-15.51,.23-32.64,.25-65.28-.02-97.92-.09-11.19-5.59-20.18-19.06-20.45-2.88-.06-3.16-1.42-3.15-3.74,.01-3.18,1.91-2.22,3.72-2.1,13.85,.91,27.66,.91,41.15-2.87,3.19-.9,3.64-.09,3.61,2.78-.12,9.47-.04,18.95-.04,28.43Z"/></svg>